# xmcd
#
# Track frame offsets:
#	150
#	16600
#	31972
#	52065
#	66770
#	89137
#	108590
#	135837
#	155287
#	178862
#	202800
#	222337
#	235860
#	251127
#	268800
#	284335
#	298087
#
# Disc length: 4245 seconds
#
# Revision: 1
# Processed by: cddbd v1.5.1PL2 Copyright (c) Steve Scherf et al.
# Submitted via: EasyCDDAExtractor 9.0.0.1
#
DISCID=fd109311
DTITLE=Various Artist - WORLD BLUES
DYEAR=1998
DGENRE=Blues
TTITLE0=Paul Personne - Plus loin d'ici - 1996
TTITLE1=Vargas Blues Band - Blues Hondo - 1996
TTITLE2=Coco Montoya - Too much of a good think - 1996
TTITLE3=Almos Garett - Don't tell me - 1982
TTITLE4=Anders Osborn - Pleasin' you - 1995
TTITLE5=Six Was Nine - (whatever happened to) peace, love and happiness - 1996
TTITLE6=Colin Linden - No rest for the wicked - 1995
TTITLE7=Ligabue - Vivo Morto O X - 1995
TTITLE8=Zucchero "Sugar" Fornaciari - Pane and Sale - 1995
TTITLE9=Gypsy Queen - Carlos Santana - Black magic women - 1970
TTITLE10=Michel Françoise - Ferrailleur96
TTITLE11=Stocks - Flashback - 1984
TTITLE12=Baton Rouge - Merci Blues - 1997
TTITLE13=Jean-jacques Milteau and Patrick Verbeke - Willie and Leadbelly - 1997
TTITLE14=Colin James - Walkin' blues - 1995
TTITLE15=Junkhouse - Gimme the love - 1994
TTITLE16=Jeff Healey Band - Yer blues - 1995
EXTD=
EXTT0=
EXTT1=
EXTT2=
EXTT3=
EXTT4=
EXTT5=
EXTT6=
EXTT7=
EXTT8=
EXTT9=
EXTT10=
EXTT11=
EXTT12=
EXTT13=
EXTT14=
EXTT15=
EXTT16=
PLAYORDER=
